# xmcd CD database file generated by Grip 3.2.0
# 
# Track frame offsets:
#       150
#       15958
#       31565
# 
# Disc length: 497 seconds
# 
# Revision: 2
# Processed by: cddbd v1.5.1PL0 Copyright (c) Steve Scherf et al.
# Submitted via: Grip 3.2.0
# 
DISCID=0d01ef03
DTITLE=Mitch Benn and the Distractions - Everything Sounds Like Coldplay Now
DYEAR=2005
DGENRE=Pop
TTITLE0=Everything Sounds Like Coldplay Now
TTITLE1=Everything Sounds Like Coldplay Now (Karaoke Mix)
TTITLE2=Steal This Song
EXTD=YEAR: 1996
EXTT0=
EXTT1=
EXTT2=
PLAYORDER=
